<svg xmlns="http://www.w3.org/2000/svg" xmlns:xlink="http://www.w3.org/1999/xlink" width="500" zoomAndPan="magnify" viewBox="0 0 375 374.999991" height="500" preserveAspectRatio="xMidYMid meet" version="1.0"><defs><g/><clipPath id="924e021009"><path d="M 76.265625 76.265625 L 299 76.265625 L 299 299 L 76.265625 299 Z M 76.265625 76.265625 " clip-rule="nonzero"/></clipPath><clipPath id="899866d057"><path d="M 90.648438 90.648438 L 284.148438 90.648438 L 284.148438 284.148438 L 90.648438 284.148438 Z M 90.648438 90.648438 " clip-rule="nonzero"/></clipPath><clipPath id="bf1d7155aa"><path d="M 136.46875 136.46875 L 238.46875 136.46875 L 238.46875 238.46875 L 136.46875 238.46875 Z M 136.46875 136.46875 " clip-rule="nonzero"/></clipPath><clipPath id="268c2d3d02"><rect x="0" width="22" y="0" height="15"/></clipPath><clipPath id="f41cea628e"><rect x="0" width="22" y="0" height="15"/></clipPath><clipPath id="47e9214f71"><rect x="0" width="133" y="0" height="45"/></clipPath><clipPath id="0d3c307353"><rect x="0" width="150" y="0" height="55"/></clipPath></defs><g clip-path="url(#924e021009)"><path fill="#fcb454" d="M 187.496094 298.714844 C 183.640625 298.710938 180.265625 296.25 179.09375 292.589844 L 179.03125 292.398438 L 178.835938 292.382812 C 175.421875 292.101562 172.015625 291.65625 168.707031 291.058594 L 168.511719 291.023438 L 168.402344 291.191406 C 166.804688 293.675781 163.9375 295.214844 160.925781 295.214844 C 160.171875 295.214844 159.425781 295.117188 158.707031 294.925781 C 155 293.933594 152.375 290.6875 152.179688 286.855469 L 152.167969 286.65625 L 151.980469 286.589844 C 148.804688 285.453125 145.625 284.136719 142.539062 282.671875 L 142.359375 282.589844 L 142.210938 282.722656 C 140.628906 284.148438 138.457031 284.96875 136.253906 284.96875 C 134.699219 284.96875 133.1875 284.570312 131.882812 283.816406 C 128.542969 281.886719 126.851562 278.066406 127.667969 274.308594 L 127.710938 274.113281 L 127.546875 274 C 124.753906 272.0625 122.035156 269.972656 119.460938 267.785156 L 119.308594 267.65625 L 119.128906 267.746094 C 117.886719 268.386719 116.492188 268.726562 115.085938 268.726562 C 112.730469 268.726562 110.515625 267.808594 108.847656 266.140625 C 106.117188 263.414062 105.472656 259.28125 107.242188 255.855469 L 107.332031 255.679688 L 107.203125 255.527344 C 105.003906 252.9375 102.910156 250.214844 100.984375 247.441406 L 100.871094 247.28125 L 100.679688 247.320312 C 100.09375 247.449219 99.484375 247.515625 98.871094 247.515625 C 95.734375 247.515625 92.714844 245.785156 91.167969 243.109375 C 89.246094 239.777344 89.683594 235.625 92.257812 232.777344 L 92.394531 232.628906 L 92.308594 232.453125 C 90.867188 229.402344 89.546875 226.226562 88.394531 223.011719 L 88.328125 222.828125 L 88.128906 222.816406 C 84.296875 222.621094 81.050781 219.996094 80.054688 216.285156 C 79.058594 212.570312 80.5625 208.671875 83.789062 206.585938 L 83.953125 206.480469 L 83.917969 206.285156 C 83.316406 202.929688 82.871094 199.527344 82.601562 196.164062 L 82.582031 195.964844 L 82.394531 195.902344 C 78.726562 194.730469 76.265625 191.351562 76.265625 187.5 C 76.265625 183.644531 78.726562 180.273438 82.386719 179.09375 L 82.578125 179.03125 L 82.59375 178.835938 C 82.867188 175.46875 83.3125 172.0625 83.914062 168.710938 L 83.949219 168.511719 L 83.785156 168.40625 C 80.558594 166.324219 79.058594 162.429688 80.050781 158.710938 C 81.046875 155 84.292969 152.375 88.121094 152.179688 L 88.320312 152.171875 L 88.386719 151.984375 C 89.523438 148.8125 90.839844 145.632812 92.300781 142.542969 L 92.386719 142.363281 L 92.253906 142.214844 C 89.679688 139.363281 89.242188 135.214844 91.160156 131.886719 C 92.710938 129.210938 95.738281 127.480469 98.875 127.480469 C 99.480469 127.480469 100.082031 127.546875 100.667969 127.671875 L 100.863281 127.714844 L 100.976562 127.550781 C 102.921875 124.753906 105.015625 122.03125 107.195312 119.464844 L 107.324219 119.3125 L 107.230469 119.136719 C 105.464844 115.710938 106.109375 111.578125 108.835938 108.851562 C 110.5 107.183594 112.71875 106.265625 115.074219 106.265625 C 116.484375 106.265625 117.886719 106.605469 119.125 107.246094 L 119.300781 107.339844 L 119.453125 107.210938 C 122.042969 105.015625 124.761719 102.925781 127.535156 101 L 127.699219 100.882812 L 127.65625 100.6875 C 126.835938 96.929688 128.53125 93.105469 131.871094 91.175781 C 133.175781 90.421875 134.6875 90.023438 136.242188 90.023438 C 138.449219 90.023438 140.621094 90.839844 142.203125 92.269531 L 142.351562 92.402344 L 142.527344 92.320312 C 145.589844 90.871094 148.765625 89.554688 151.964844 88.40625 L 152.152344 88.339844 L 152.164062 88.140625 C 152.359375 84.300781 154.984375 81.058594 158.695312 80.066406 C 159.410156 79.871094 160.15625 79.773438 160.910156 79.773438 C 163.921875 79.773438 166.789062 81.316406 168.394531 83.800781 L 168.5 83.96875 L 168.695312 83.933594 C 172.015625 83.332031 175.421875 82.890625 178.8125 82.613281 L 179.015625 82.597656 L 179.074219 82.40625 C 180.246094 78.738281 183.625 76.273438 187.480469 76.273438 C 191.335938 76.273438 194.710938 78.738281 195.886719 82.40625 L 195.949219 82.597656 L 196.148438 82.613281 C 199.542969 82.890625 202.945312 83.332031 206.261719 83.933594 L 206.457031 83.96875 L 206.566406 83.796875 C 208.164062 81.304688 211.039062 79.753906 214.070312 79.753906 C 214.820312 79.753906 215.5625 79.847656 216.277344 80.039062 C 220.007812 81.042969 222.632812 84.300781 222.8125 88.144531 L 222.824219 88.34375 L 223.011719 88.410156 C 226.191406 89.554688 229.355469 90.867188 232.421875 92.316406 L 232.605469 92.402344 L 232.75 92.269531 C 234.332031 90.828125 236.511719 90 238.734375 90 C 240.289062 90 241.804688 90.398438 243.109375 91.152344 C 246.457031 93.085938 248.144531 96.921875 247.316406 100.699219 L 247.273438 100.890625 L 247.433594 101.003906 C 250.214844 102.9375 252.925781 105.023438 255.496094 107.203125 L 255.648438 107.332031 L 255.828125 107.238281 C 257.074219 106.589844 258.484375 106.246094 259.898438 106.246094 C 262.257812 106.246094 264.476562 107.164062 266.144531 108.828125 C 268.878906 111.570312 269.515625 115.714844 267.730469 119.148438 L 267.640625 119.324219 L 267.769531 119.476562 C 269.960938 122.0625 272.042969 124.777344 273.960938 127.539062 L 274.078125 127.703125 L 274.269531 127.660156 C 274.871094 127.527344 275.496094 127.457031 276.117188 127.457031 C 279.25 127.457031 282.269531 129.1875 283.820312 131.867188 C 285.746094 135.210938 285.296875 139.375 282.699219 142.222656 L 282.5625 142.371094 L 282.648438 142.554688 C 284.109375 145.644531 285.425781 148.808594 286.554688 151.960938 L 286.621094 152.152344 L 286.820312 152.160156 C 290.671875 152.34375 293.929688 154.96875 294.929688 158.691406 C 295.925781 162.425781 294.414062 166.332031 291.164062 168.410156 L 290.996094 168.515625 L 291.03125 168.714844 C 291.632812 172.046875 292.082031 175.445312 292.359375 178.808594 L 292.375 179.007812 L 292.5625 179.066406 C 296.242188 180.234375 298.71875 183.613281 298.71875 187.480469 C 298.71875 191.339844 296.246094 194.722656 292.570312 195.890625 L 292.382812 195.953125 L 292.363281 196.152344 C 292.089844 199.515625 291.648438 202.917969 291.046875 206.257812 L 291.011719 206.453125 L 291.179688 206.5625 C 294.417969 208.644531 295.925781 212.542969 294.929688 216.269531 C 293.9375 219.984375 290.683594 222.609375 286.839844 222.800781 L 286.636719 222.808594 L 286.570312 222.996094 C 285.425781 226.203125 284.109375 229.375 282.664062 232.425781 L 282.578125 232.601562 L 282.714844 232.75 C 285.296875 235.605469 285.742188 239.761719 283.820312 243.09375 C 282.273438 245.773438 279.246094 247.503906 276.109375 247.503906 C 275.496094 247.503906 274.882812 247.4375 274.289062 247.308594 L 274.097656 247.265625 L 273.984375 247.429688 C 272.042969 250.222656 269.957031 252.9375 267.777344 255.503906 L 267.648438 255.65625 L 267.742188 255.835938 C 269.515625 259.261719 268.871094 263.398438 266.140625 266.128906 C 264.476562 267.800781 262.257812 268.71875 259.902344 268.71875 C 258.492188 268.71875 257.089844 268.375 255.84375 267.734375 L 255.664062 267.640625 L 255.511719 267.769531 C 252.917969 269.972656 250.199219 272.0625 247.441406 273.976562 L 247.277344 274.09375 L 247.320312 274.289062 C 248.140625 278.054688 246.445312 281.882812 243.105469 283.8125 C 241.796875 284.566406 240.285156 284.964844 238.730469 284.964844 C 236.519531 284.964844 234.347656 284.144531 232.769531 282.710938 L 232.621094 282.578125 L 232.4375 282.660156 C 229.378906 284.113281 226.203125 285.429688 223.007812 286.574219 L 222.820312 286.644531 L 222.808594 286.839844 C 222.621094 290.675781 220 293.925781 216.28125 294.921875 C 215.566406 295.113281 214.820312 295.210938 214.070312 295.210938 C 211.046875 295.210938 208.179688 293.667969 206.578125 291.183594 L 206.46875 291.015625 L 206.273438 291.050781 C 202.949219 291.652344 199.542969 292.097656 196.15625 292.371094 L 195.960938 292.390625 L 195.898438 292.578125 C 194.726562 296.246094 191.347656 298.714844 187.492188 298.714844 Z M 168.265625 289.9375 C 168.296875 289.9375 168.328125 289.9375 168.355469 289.945312 L 168.890625 290.042969 C 172.167969 290.632812 175.539062 291.074219 178.917969 291.347656 L 179.460938 291.394531 C 179.671875 291.410156 179.847656 291.550781 179.914062 291.75 L 180.082031 292.269531 L 180.082031 292.273438 C 181.113281 295.503906 184.09375 297.675781 187.496094 297.679688 C 190.902344 297.675781 193.882812 295.5 194.917969 292.261719 L 195.082031 291.742188 C 195.148438 291.542969 195.324219 291.402344 195.535156 291.386719 L 196.078125 291.339844 C 199.429688 291.066406 202.800781 290.625 206.09375 290.03125 L 206.632812 289.933594 C 206.835938 289.894531 207.042969 289.988281 207.15625 290.164062 L 207.453125 290.621094 C 208.863281 292.8125 211.402344 294.175781 214.074219 294.175781 C 214.734375 294.175781 215.390625 294.089844 216.015625 293.921875 C 219.296875 293.042969 221.613281 290.175781 221.78125 286.789062 L 221.808594 286.242188 C 221.820312 286.035156 221.957031 285.855469 222.152344 285.785156 L 222.664062 285.601562 C 225.828125 284.464844 228.96875 283.160156 232 281.726562 L 232.496094 281.492188 C 232.683594 281.402344 232.90625 281.4375 233.0625 281.578125 L 233.46875 281.941406 C 234.859375 283.203125 236.78125 283.925781 238.734375 283.925781 C 240.109375 283.925781 241.445312 283.578125 242.59375 282.914062 C 245.542969 281.210938 247.035156 277.832031 246.3125 274.507812 L 246.195312 273.976562 C 246.152344 273.769531 246.234375 273.5625 246.40625 273.441406 L 246.851562 273.128906 C 249.585938 271.230469 252.273438 269.164062 254.847656 266.980469 L 255.265625 266.625 C 255.425781 266.488281 255.65625 266.464844 255.839844 266.5625 L 256.324219 266.8125 C 257.421875 267.382812 258.660156 267.683594 259.90625 267.683594 C 261.988281 267.683594 263.941406 266.871094 265.414062 265.398438 C 267.824219 262.988281 268.390625 259.335938 266.824219 256.3125 L 266.574219 255.824219 C 266.476562 255.640625 266.503906 255.414062 266.636719 255.253906 L 266.992188 254.835938 C 269.148438 252.292969 271.21875 249.601562 273.136719 246.839844 L 273.445312 246.394531 C 273.566406 246.21875 273.777344 246.140625 273.984375 246.179688 L 274.511719 246.296875 C 275.035156 246.410156 275.574219 246.46875 276.113281 246.46875 C 278.890625 246.46875 281.5625 244.941406 282.925781 242.574219 C 284.625 239.636719 284.234375 235.96875 281.953125 233.445312 L 281.585938 233.042969 C 281.445312 232.890625 281.410156 232.664062 281.5 232.476562 L 281.730469 231.984375 C 283.164062 228.960938 284.464844 225.820312 285.601562 222.644531 L 285.785156 222.132812 C 285.855469 221.9375 286.039062 221.804688 286.246094 221.792969 L 286.792969 221.765625 C 290.1875 221.597656 293.054688 219.28125 293.933594 216 C 294.8125 212.710938 293.484375 209.269531 290.621094 207.429688 L 290.164062 207.136719 C 289.992188 207.023438 289.898438 206.816406 289.9375 206.609375 L 290.035156 206.074219 C 290.625 202.765625 291.066406 199.398438 291.335938 196.066406 L 291.382812 195.519531 C 291.398438 195.3125 291.542969 195.132812 291.742188 195.070312 L 292.265625 194.90625 C 295.507812 193.871094 297.6875 190.886719 297.691406 187.476562 C 297.6875 184.070312 295.503906 181.082031 292.253906 180.054688 L 291.734375 179.890625 C 291.535156 179.824219 291.390625 179.648438 291.375 179.4375 L 291.332031 178.890625 C 291.058594 175.5625 290.617188 172.199219 290.019531 168.894531 L 289.921875 168.359375 C 289.886719 168.152344 289.976562 167.945312 290.152344 167.832031 L 290.613281 167.535156 C 293.480469 165.703125 294.816406 162.253906 293.933594 158.960938 C 293.054688 155.671875 290.175781 153.355469 286.777344 153.195312 L 286.234375 153.167969 C 286.027344 153.160156 285.84375 153.023438 285.773438 152.828125 L 285.585938 152.3125 C 284.46875 149.191406 283.167969 146.058594 281.71875 142.996094 L 281.484375 142.5 C 281.394531 142.3125 281.429688 142.085938 281.570312 141.933594 L 281.9375 141.527344 C 284.230469 139.011719 284.628906 135.335938 282.929688 132.382812 C 281.5625 130.019531 278.890625 128.492188 276.125 128.492188 C 275.574219 128.492188 275.03125 128.554688 274.5 128.671875 L 273.96875 128.789062 C 273.761719 128.832031 273.550781 128.75 273.429688 128.578125 L 273.117188 128.128906 C 271.21875 125.394531 269.15625 122.707031 266.984375 120.144531 L 266.628906 119.726562 C 266.492188 119.566406 266.46875 119.339844 266.566406 119.152344 L 266.820312 118.667969 C 268.394531 115.640625 267.832031 111.980469 265.417969 109.558594 C 263.945312 108.089844 261.988281 107.28125 259.90625 107.28125 C 258.652344 107.28125 257.410156 107.585938 256.3125 108.15625 L 255.824219 108.410156 C 255.640625 108.503906 255.410156 108.480469 255.25 108.347656 L 254.832031 107.992188 C 252.289062 105.832031 249.601562 103.769531 246.847656 101.855469 L 246.402344 101.542969 C 246.230469 101.421875 246.144531 101.210938 246.191406 101.003906 L 246.308594 100.472656 C 247.042969 97.140625 245.550781 93.753906 242.59375 92.046875 C 241.449219 91.386719 240.113281 91.035156 238.738281 91.035156 C 236.773438 91.035156 234.84375 91.761719 233.453125 93.03125 L 233.050781 93.398438 C 232.898438 93.539062 232.671875 93.574219 232.480469 93.484375 L 231.984375 93.25 C 228.949219 91.816406 225.816406 90.515625 222.667969 89.382812 L 222.15625 89.199219 C 221.957031 89.128906 221.824219 88.945312 221.8125 88.738281 L 221.785156 88.195312 C 221.625 84.796875 219.308594 81.921875 216.015625 81.039062 C 215.390625 80.871094 214.738281 80.785156 214.078125 80.785156 C 211.394531 80.785156 208.855469 82.152344 207.445312 84.355469 L 207.148438 84.816406 C 207.035156 84.992188 206.832031 85.082031 206.621094 85.046875 L 206.082031 84.949219 C 202.800781 84.355469 199.433594 83.914062 196.066406 83.640625 L 195.523438 83.597656 C 195.3125 83.582031 195.136719 83.4375 195.074219 83.238281 L 194.90625 82.71875 C 193.867188 79.484375 190.886719 77.308594 187.488281 77.308594 C 184.085938 77.308594 181.101562 79.484375 180.066406 82.71875 L 179.902344 83.238281 C 179.835938 83.4375 179.660156 83.582031 179.449219 83.597656 L 178.90625 83.640625 C 175.542969 83.914062 172.171875 84.355469 168.886719 84.949219 L 168.351562 85.046875 C 168.144531 85.085938 167.9375 84.992188 167.824219 84.816406 L 167.53125 84.359375 C 166.113281 82.167969 163.582031 80.808594 160.917969 80.808594 C 160.253906 80.808594 159.597656 80.894531 158.96875 81.0625 C 155.691406 81.9375 153.375 84.804688 153.203125 88.1875 L 153.175781 88.734375 C 153.164062 88.941406 153.03125 89.121094 152.832031 89.195312 L 152.320312 89.378906 C 149.152344 90.515625 146.007812 91.816406 142.976562 93.25 L 142.488281 93.484375 C 142.296875 93.574219 142.070312 93.542969 141.917969 93.398438 L 141.515625 93.035156 C 140.121094 91.777344 138.203125 91.054688 136.25 91.054688 C 134.875 91.054688 133.539062 91.40625 132.390625 92.070312 C 129.445312 93.769531 127.953125 97.144531 128.675781 100.464844 L 128.789062 101 C 128.832031 101.203125 128.75 101.414062 128.578125 101.535156 L 128.132812 101.84375 C 125.382812 103.753906 122.691406 105.824219 120.128906 107.996094 L 119.714844 108.351562 C 119.550781 108.484375 119.328125 108.511719 119.140625 108.414062 L 118.652344 108.164062 C 117.558594 107.597656 116.324219 107.300781 115.082031 107.300781 C 113 107.300781 111.042969 108.109375 109.574219 109.582031 C 107.164062 111.988281 106.597656 115.636719 108.15625 118.660156 L 108.40625 119.144531 C 108.5 119.332031 108.476562 119.554688 108.339844 119.714844 L 107.988281 120.132812 C 105.832031 122.671875 103.757812 125.367188 101.832031 128.136719 L 101.523438 128.582031 C 101.402344 128.753906 101.191406 128.84375 100.988281 128.792969 L 100.453125 128.679688 C 99.941406 128.570312 99.410156 128.511719 98.878906 128.511719 C 96.105469 128.511719 93.429688 130.039062 92.0625 132.402344 C 90.367188 135.335938 90.753906 139 93.027344 141.515625 L 93.390625 141.921875 C 93.53125 142.074219 93.566406 142.300781 93.476562 142.488281 L 93.242188 142.980469 C 91.796875 146.042969 90.492188 149.1875 89.367188 152.332031 L 89.183594 152.839844 C 89.113281 153.039062 88.929688 153.171875 88.722656 153.183594 L 88.179688 153.210938 C 84.800781 153.382812 81.933594 155.699219 81.054688 158.976562 C 80.179688 162.253906 81.503906 165.695312 84.351562 167.53125 L 84.804688 167.828125 C 84.980469 167.941406 85.070312 168.148438 85.035156 168.355469 L 84.9375 168.890625 C 84.34375 172.207031 83.902344 175.582031 83.632812 178.914062 L 83.585938 179.457031 C 83.570312 179.667969 83.429688 179.84375 83.230469 179.910156 L 82.710938 180.078125 C 79.476562 181.113281 77.304688 184.097656 77.304688 187.496094 C 77.304688 190.894531 79.480469 193.875 82.714844 194.914062 L 83.234375 195.082031 C 83.433594 195.144531 83.574219 195.324219 83.59375 195.53125 L 83.636719 196.074219 C 83.90625 199.402344 84.347656 202.777344 84.945312 206.097656 L 85.039062 206.632812 C 85.078125 206.835938 84.984375 207.046875 84.8125 207.160156 L 84.355469 207.453125 C 81.507812 209.292969 80.179688 212.730469 81.058594 216.011719 C 81.9375 219.285156 84.804688 221.601562 88.1875 221.777344 L 88.726562 221.804688 C 88.933594 221.816406 89.117188 221.949219 89.1875 222.144531 L 89.371094 222.65625 C 90.515625 225.839844 91.820312 228.984375 93.25 232.003906 L 93.480469 232.496094 C 93.570312 232.683594 93.539062 232.910156 93.398438 233.066406 L 93.03125 233.46875 C 90.757812 235.984375 90.371094 239.648438 92.070312 242.589844 C 93.433594 244.949219 96.105469 246.476562 98.875 246.476562 C 99.414062 246.476562 99.949219 246.417969 100.464844 246.304688 L 100.996094 246.191406 C 101.195312 246.144531 101.410156 246.230469 101.53125 246.402344 L 101.839844 246.847656 C 103.75 249.597656 105.820312 252.289062 107.996094 254.855469 L 108.351562 255.273438 C 108.488281 255.429688 108.511719 255.65625 108.417969 255.84375 L 108.167969 256.328125 C 106.605469 259.351562 107.171875 263 109.582031 265.40625 C 111.054688 266.878906 113.011719 267.6875 115.089844 267.6875 C 116.332031 267.6875 117.5625 267.390625 118.660156 266.824219 L 119.144531 266.574219 C 119.332031 266.476562 119.554688 266.503906 119.71875 266.636719 L 120.132812 266.992188 C 122.6875 269.15625 125.378906 271.226562 128.140625 273.148438 L 128.589844 273.457031 C 128.761719 273.578125 128.84375 273.789062 128.800781 273.992188 L 128.683594 274.523438 C 127.964844 277.839844 129.457031 281.214844 132.40625 282.914062 C 133.550781 283.578125 134.886719 283.929688 136.257812 283.929688 C 138.210938 283.929688 140.128906 283.207031 141.519531 281.949219 L 141.925781 281.585938 C 142.078125 281.445312 142.304688 281.410156 142.492188 281.5 L 142.984375 281.734375 C 146.042969 283.179688 149.191406 284.484375 152.335938 285.609375 L 152.847656 285.792969 C 153.042969 285.867188 153.179688 286.046875 153.191406 286.253906 L 153.21875 286.800781 C 153.390625 290.183594 155.707031 293.046875 158.980469 293.921875 C 159.609375 294.089844 160.265625 294.175781 160.929688 294.175781 C 163.59375 294.175781 166.125 292.816406 167.539062 290.625 L 167.835938 290.167969 C 167.933594 290.019531 168.097656 289.933594 168.269531 289.933594 Z M 168.265625 289.9375 " fill-opacity="1" fill-rule="nonzero"/></g><g clip-path="url(#899866d057)"><path fill="#fcb454" d="M 187.496094 284.347656 C 161.628906 284.347656 137.308594 274.273438 119.011719 255.980469 C 100.722656 237.6875 90.648438 213.367188 90.648438 187.496094 C 90.648438 161.628906 100.722656 137.308594 119.011719 119.015625 C 137.308594 100.722656 161.628906 90.648438 187.496094 90.648438 C 213.363281 90.648438 237.683594 100.722656 255.980469 119.015625 C 274.273438 137.3125 284.347656 161.632812 284.347656 187.5 C 284.347656 213.363281 274.269531 237.6875 255.980469 255.980469 C 237.683594 274.273438 213.363281 284.347656 187.496094 284.347656 Z M 93.625 202.003906 C 93.46875 202.003906 93.324219 202.070312 93.226562 202.1875 C 93.125 202.304688 93.082031 202.457031 93.105469 202.609375 C 96.28125 222.574219 105.550781 240.722656 119.914062 255.082031 C 137.960938 273.132812 161.964844 283.074219 187.496094 283.074219 C 213.03125 283.074219 237.027344 273.132812 255.078125 255.082031 C 269.445312 240.71875 278.710938 222.574219 281.882812 202.609375 C 281.910156 202.457031 281.867188 202.304688 281.765625 202.1875 C 281.664062 202.070312 281.519531 202.003906 281.367188 202.003906 L 245.78125 202.003906 C 245.542969 202.003906 245.332031 202.164062 245.273438 202.398438 C 242.628906 212.6875 237.234375 222.121094 229.675781 229.679688 C 218.410156 240.945312 203.429688 247.152344 187.496094 247.152344 C 171.566406 247.152344 156.582031 240.945312 145.3125 229.679688 C 137.757812 222.125 132.367188 212.6875 129.71875 202.398438 C 129.65625 202.164062 129.449219 202.003906 129.210938 202.003906 Z M 187.496094 129.117188 C 171.902344 129.117188 157.242188 135.191406 146.214844 146.21875 C 135.1875 157.246094 129.113281 171.90625 129.113281 187.496094 C 129.113281 203.089844 135.1875 217.75 146.214844 228.777344 C 157.242188 239.808594 171.902344 245.878906 187.496094 245.878906 C 203.09375 245.878906 217.753906 239.808594 228.777344 228.777344 C 239.804688 217.753906 245.878906 203.09375 245.878906 187.496094 C 245.878906 171.902344 239.804688 157.242188 228.777344 146.21875 C 217.753906 135.191406 203.09375 129.117188 187.496094 129.117188 Z M 246.277344 174.03125 C 246.117188 174.03125 245.96875 174.101562 245.867188 174.226562 C 245.769531 174.351562 245.730469 174.511719 245.765625 174.667969 C 246.683594 178.847656 247.148438 183.164062 247.148438 187.496094 C 247.148438 191.828125 246.683594 196.148438 245.765625 200.328125 C 245.730469 200.484375 245.769531 200.644531 245.867188 200.769531 C 245.96875 200.894531 246.117188 200.964844 246.277344 200.964844 L 281.675781 200.964844 C 281.9375 200.964844 282.160156 200.769531 282.195312 200.511719 C 282.78125 196.21875 283.074219 191.839844 283.074219 187.496094 C 283.074219 183.15625 282.78125 178.777344 282.195312 174.484375 C 282.160156 174.226562 281.9375 174.03125 281.675781 174.03125 Z M 93.320312 174.03125 C 93.058594 174.03125 92.835938 174.226562 92.800781 174.484375 C 92.214844 178.777344 91.917969 183.15625 91.917969 187.496094 C 91.917969 191.839844 92.214844 196.21875 92.800781 200.511719 C 92.835938 200.769531 93.058594 200.964844 93.320312 200.964844 L 128.71875 200.964844 C 128.875 200.964844 129.027344 200.894531 129.125 200.769531 C 129.222656 200.644531 129.261719 200.484375 129.230469 200.328125 C 128.3125 196.144531 127.847656 191.828125 127.847656 187.496094 C 127.847656 183.167969 128.3125 178.851562 129.230469 174.667969 C 129.261719 174.511719 129.222656 174.351562 129.125 174.226562 C 129.027344 174.101562 128.875 174.03125 128.71875 174.03125 Z M 187.496094 127.847656 C 203.429688 127.847656 218.410156 134.050781 229.679688 145.316406 C 237.234375 152.878906 242.628906 162.3125 245.273438 172.597656 C 245.332031 172.832031 245.542969 172.992188 245.78125 172.992188 L 281.367188 172.992188 C 281.519531 172.992188 281.667969 172.925781 281.765625 172.808594 C 281.867188 172.691406 281.910156 172.539062 281.886719 172.386719 C 278.714844 152.421875 269.445312 134.277344 255.082031 119.914062 C 237.027344 101.863281 213.027344 91.921875 187.496094 91.921875 C 161.96875 91.921875 137.964844 101.863281 119.914062 119.914062 C 105.550781 134.277344 96.28125 152.421875 93.105469 172.386719 C 93.082031 172.539062 93.125 172.691406 93.226562 172.808594 C 93.324219 172.925781 93.46875 172.992188 93.625 172.992188 L 129.210938 172.992188 C 129.449219 172.992188 129.660156 172.832031 129.71875 172.597656 C 132.367188 162.308594 137.761719 152.875 145.3125 145.316406 C 156.582031 134.050781 171.5625 127.847656 187.496094 127.847656 Z M 187.496094 127.847656 " fill-opacity="1" fill-rule="nonzero"/></g><g clip-path="url(#bf1d7155aa)"><path fill="#ff5757" d="M 187.5 136.472656 C 159.363281 136.472656 136.46875 159.363281 136.46875 187.5 C 136.46875 215.636719 159.363281 238.527344 187.5 238.527344 C 215.636719 238.527344 238.527344 215.636719 238.527344 187.5 C 238.527344 159.363281 215.636719 136.472656 187.5 136.472656 Z M 186.65625 188.054688 C 186.882812 190.886719 189.363281 192.996094 192.195312 192.765625 C 193.578125 192.652344 194.789062 192 195.636719 191.035156 C 195.710938 190.949219 195.847656 191.035156 195.800781 191.136719 C 194.285156 194.554688 189.867188 194.363281 188.871094 194.066406 C 188.792969 194.042969 188.722656 194.117188 188.75 194.195312 C 189.054688 195.058594 189.996094 195.988281 191.035156 196.414062 C 191.136719 196.453125 191.101562 196.601562 190.996094 196.601562 C 187.707031 196.589844 184.652344 194.136719 184.355469 190.457031 C 184.058594 186.8125 186.5 184.757812 187.769531 184.0625 C 187.863281 184.011719 187.960938 184.125 187.890625 184.210938 C 187.027344 185.230469 186.539062 186.632812 186.65625 188.054688 Z M 194.191406 188.839844 C 194.394531 188.824219 194.585938 188.769531 194.753906 188.679688 C 194.855469 188.628906 194.949219 188.746094 194.875 188.832031 C 194.511719 189.257812 193.988281 189.550781 193.382812 189.597656 C 192.125 189.699219 191.027344 188.730469 190.984375 187.457031 C 190.949219 186.332031 191.792969 185.332031 192.910156 185.183594 C 193.558594 185.097656 194.167969 185.300781 194.625 185.6875 C 194.703125 185.753906 194.632812 185.890625 194.53125 185.855469 C 194.300781 185.78125 194.042969 185.761719 193.78125 185.808594 C 193.082031 185.941406 192.558594 186.5625 192.539062 187.269531 C 192.515625 188.195312 193.292969 188.914062 194.191406 188.839844 Z M 202.964844 180.21875 C 205.835938 176.257812 201.988281 171.292969 199.886719 169.28125 C 199.78125 169.183594 199.925781 169.023438 200.046875 169.097656 C 202.5 170.582031 207.042969 173.703125 207.347656 177.457031 C 207.65625 181.273438 203.230469 181.578125 202.964844 180.21875 Z M 211.230469 192 C 211.285156 192.101562 211.148438 192.195312 211.070312 192.109375 C 207.605469 188.3125 204.554688 188.800781 203.882812 188.949219 C 203.878906 188.953125 203.878906 188.949219 203.878906 188.949219 C 202.925781 188.570312 203.308594 186.035156 205.613281 186.96875 C 207.917969 187.902344 210.1875 189.992188 211.234375 192 Z M 211.988281 207.125 C 214.570312 207.332031 215.355469 212.636719 210.878906 213.289062 C 207.101562 213.839844 201.773438 210.070312 200.132812 203.585938 C 200.105469 203.476562 200.257812 203.414062 200.316406 203.511719 C 201.816406 206.070312 205.417969 210.191406 209.011719 210.113281 C 211.128906 210.066406 212.140625 208.25 211.988281 207.125 Z M 201.449219 221.289062 C 201.867188 221.109375 202.15625 220.53125 202.105469 219.9375 C 202.101562 219.867188 202.191406 219.828125 202.238281 219.882812 C 203.128906 220.941406 203.578125 223.066406 202.601562 223.757812 C 200.519531 225.230469 197.203125 220.25 196.398438 217.8125 C 196.359375 217.699219 196.515625 217.628906 196.574219 217.730469 C 197.746094 219.640625 199.777344 222.011719 201.449219 221.289062 Z M 195.429688 224 C 195.398438 223.925781 195.488281 223.859375 195.546875 223.914062 C 197.148438 225.375 197.734375 228.171875 196.445312 228.78125 C 193.542969 230.152344 189.796875 223.121094 189.015625 220.460938 C 188.984375 220.34375 189.144531 220.28125 189.199219 220.386719 C 190.476562 222.886719 193.070312 226.703125 195.050781 225.734375 C 195.679688 225.425781 195.730469 224.707031 195.429688 224 Z M 193.363281 217.742188 C 191.484375 218.535156 189.191406 214.582031 188.613281 211.917969 C 188.589844 211.800781 188.75 211.746094 188.800781 211.855469 C 189.511719 213.414062 191.078125 215.347656 192.308594 215.21875 C 192.714844 215.179688 193.257812 214.902344 193.347656 214.035156 C 193.355469 213.964844 193.453125 213.941406 193.488281 214.007812 C 194.277344 215.398438 194.515625 217.257812 193.363281 217.742188 Z M 197.117188 212.9375 C 195.296875 213.492188 192.210938 209.179688 191.714844 205.433594 C 191.699219 205.3125 191.871094 205.273438 191.90625 205.386719 C 192.695312 207.757812 194.785156 210.769531 196.53125 209.914062 C 196.882812 209.742188 197.183594 209.328125 197.15625 208.71875 C 197.152344 208.640625 197.253906 208.605469 197.292969 208.675781 C 198.128906 210.140625 198.546875 212.503906 197.117188 212.9375 Z M 187.285156 205.308594 C 187.691406 205.273438 188.15625 204.949219 188.371094 204.039062 C 188.386719 203.96875 188.492188 203.964844 188.515625 204.039062 C 189.277344 206.332031 188.96875 208.519531 187.777344 208.832031 C 185.738281 209.363281 182.660156 204.179688 183.863281 197.273438 C 183.886719 197.152344 184.058594 197.167969 184.0625 197.289062 C 184.089844 200.335938 184.867188 205.503906 187.285156 205.308594 Z M 213.226562 226.980469 C 210.359375 224.878906 208.160156 220.457031 207.929688 218.75 C 206.164062 218.273438 202.140625 215.421875 201.210938 210.921875 C 201.1875 210.8125 201.335938 210.753906 201.390625 210.851562 C 202.867188 213.382812 206.847656 216.707031 211.125 216.359375 C 214.863281 216.054688 217.304688 212.992188 217.015625 209.433594 C 216.527344 203.394531 207.351562 201.75 206.976562 197.121094 C 205.171875 197.164062 202.878906 195.886719 202.582031 194.203125 C 202.5625 194.113281 202.667969 194.050781 202.738281 194.105469 C 206.367188 196.800781 208.203125 193.847656 214.082031 195.199219 C 214.148438 195.214844 214.210938 195.160156 214.203125 195.089844 C 213.855469 191.738281 210.71875 187.582031 206.625 185.402344 C 206.554688 185.367188 206.554688 185.265625 206.625 185.230469 C 208.5 184.289062 211.140625 181.253906 210.808594 177.179688 C 210.238281 170.167969 202.769531 167.078125 200.640625 165.441406 C 198.726562 163.96875 197.449219 163.003906 197.484375 161.34375 C 197.488281 161.1875 197.324219 161.046875 197.101562 161.113281 C 195.015625 161.746094 195.875 163.773438 194.34375 164.097656 C 191.605469 164.683594 191.765625 158.652344 189.96875 158.800781 C 187.628906 158.988281 191.015625 164.164062 187.835938 164.726562 C 185.453125 165.144531 185.144531 159.316406 181.550781 158.609375 C 181.007812 158.503906 180.730469 159.089844 180.996094 159.363281 C 182.648438 161.054688 183.332031 164.277344 181.464844 164.425781 C 179.964844 164.546875 180.144531 162.375 177.734375 160.746094 C 175.730469 159.386719 175.765625 158.210938 176.214844 156.484375 C 176.394531 155.789062 175.703125 155.484375 175.246094 155.878906 C 171.796875 158.835938 175.789062 161.996094 173.828125 163.074219 C 171.449219 164.386719 168.441406 160.390625 168.5 155.042969 C 168.507812 154.371094 167.746094 154.101562 167.375 154.792969 C 157.707031 172.765625 173.128906 181.175781 177.914062 181.28125 C 178.011719 181.28125 178.046875 181.410156 177.964844 181.460938 C 166.191406 183.671875 164.210938 196.242188 164.636719 196.707031 C 159.164062 202.476562 154.671875 212.191406 157.222656 214.171875 C 155.90625 216.457031 155.121094 218.976562 154.71875 221.34375 C 145.871094 212.765625 140.351562 200.769531 140.351562 187.5 C 140.351562 161.503906 161.503906 140.351562 187.5 140.351562 C 213.496094 140.351562 234.648438 161.503906 234.648438 187.5 C 234.648438 204.011719 226.109375 218.554688 213.226562 226.980469 Z M 213.226562 226.980469 " fill-opacity="1" fill-rule="evenodd"/></g><g transform="matrix(1, 0, 0, 1, 101, 179)"><g clip-path="url(#268c2d3d02)"><g fill="#ff5757" fill-opacity="1"><g transform="translate(1.017686, 12.013225)"><g><path d="M 5.1875 -4.6875 L 2.453125 -3.21875 C 2.335938 -3.15625 2.28125 -3.054688 2.28125 -2.921875 L 2.28125 -1.859375 C 2.28125 -1.691406 2.363281 -1.609375 2.53125 -1.609375 L 3.84375 -1.609375 L 3.84375 -2.125 C 3.84375 -2.28125 3.925781 -2.359375 4.09375 -2.359375 L 5.265625 -2.359375 C 5.429688 -2.359375 5.515625 -2.28125 5.515625 -2.125 L 5.515625 -0.25 C 5.515625 -0.0820312 5.429688 0 5.265625 0 L 0.859375 0 C 0.691406 0 0.609375 -0.0820312 0.609375 -0.25 L 0.609375 -3.859375 C 0.609375 -3.972656 0.632812 -4.0625 0.6875 -4.125 C 0.738281 -4.1875 0.820312 -4.25 0.9375 -4.3125 L 3.84375 -5.875 L 3.84375 -7.6875 C 3.84375 -8.019531 3.679688 -8.1875 3.359375 -8.1875 L 2.765625 -8.1875 C 2.441406 -8.1875 2.28125 -8.019531 2.28125 -7.6875 L 2.28125 -6.734375 C 2.28125 -6.609375 2.210938 -6.546875 2.078125 -6.546875 L 0.8125 -6.546875 C 0.675781 -6.546875 0.609375 -6.609375 0.609375 -6.734375 L 0.609375 -8.03125 C 0.609375 -8.613281 0.757812 -9.050781 1.0625 -9.34375 C 1.363281 -9.644531 1.800781 -9.796875 2.375 -9.796875 L 3.75 -9.796875 C 4.320312 -9.796875 4.757812 -9.644531 5.0625 -9.34375 C 5.363281 -9.050781 5.515625 -8.613281 5.515625 -8.03125 L 5.515625 -5.140625 C 5.515625 -5.023438 5.488281 -4.9375 5.4375 -4.875 C 5.382812 -4.820312 5.300781 -4.757812 5.1875 -4.6875 Z M 5.1875 -4.6875 "/></g></g></g><g fill="#ff5757" fill-opacity="1"><g transform="translate(11.079323, 12.013225)"><g><path d="M 0.609375 -1.765625 L 0.609375 -8.03125 C 0.609375 -8.613281 0.757812 -9.050781 1.0625 -9.34375 C 1.363281 -9.644531 1.800781 -9.796875 2.375 -9.796875 L 3.75 -9.796875 C 4.332031 -9.796875 4.769531 -9.644531 5.0625 -9.34375 C 5.363281 -9.050781 5.515625 -8.613281 5.515625 -8.03125 L 5.515625 -1.765625 C 5.515625 -1.191406 5.363281 -0.753906 5.0625 -0.453125 C 4.769531 -0.148438 4.332031 0 3.75 0 L 2.375 0 C 1.800781 0 1.363281 -0.148438 1.0625 -0.453125 C 0.757812 -0.753906 0.609375 -1.191406 0.609375 -1.765625 Z M 2.734375 -1.578125 L 3.4375 -1.578125 C 3.769531 -1.578125 3.9375 -1.738281 3.9375 -2.0625 L 3.9375 -7.734375 C 3.9375 -8.054688 3.769531 -8.21875 3.4375 -8.21875 L 2.734375 -8.21875 C 2.398438 -8.21875 2.234375 -8.054688 2.234375 -7.734375 L 2.234375 -2.0625 C 2.234375 -1.738281 2.398438 -1.578125 2.734375 -1.578125 Z M 2.734375 -1.578125 "/></g></g></g></g></g><g transform="matrix(1, 0, 0, 1, 256, 179)"><g clip-path="url(#f41cea628e)"><g fill="#ff5757" fill-opacity="1"><g transform="translate(0.777898, 12.013225)"><g><path d="M 0.609375 -1.765625 L 0.609375 -8.03125 C 0.609375 -8.613281 0.757812 -9.050781 1.0625 -9.34375 C 1.363281 -9.644531 1.800781 -9.796875 2.375 -9.796875 L 3.75 -9.796875 C 4.332031 -9.796875 4.769531 -9.644531 5.0625 -9.34375 C 5.363281 -9.050781 5.515625 -8.613281 5.515625 -8.03125 L 5.515625 -1.765625 C 5.515625 -1.191406 5.363281 -0.753906 5.0625 -0.453125 C 4.769531 -0.148438 4.332031 0 3.75 0 L 2.375 0 C 1.800781 0 1.363281 -0.148438 1.0625 -0.453125 C 0.757812 -0.753906 0.609375 -1.191406 0.609375 -1.765625 Z M 2.734375 -1.578125 L 3.4375 -1.578125 C 3.769531 -1.578125 3.9375 -1.738281 3.9375 -2.0625 L 3.9375 -7.734375 C 3.9375 -8.054688 3.769531 -8.21875 3.4375 -8.21875 L 2.734375 -8.21875 C 2.398438 -8.21875 2.234375 -8.054688 2.234375 -7.734375 L 2.234375 -2.0625 C 2.234375 -1.738281 2.398438 -1.578125 2.734375 -1.578125 Z M 2.734375 -1.578125 "/></g></g></g><g fill="#ff5757" fill-opacity="1"><g transform="translate(10.839535, 12.013225)"><g><path d="M 5.1875 -4.6875 L 2.453125 -3.21875 C 2.335938 -3.15625 2.28125 -3.054688 2.28125 -2.921875 L 2.28125 -1.859375 C 2.28125 -1.691406 2.363281 -1.609375 2.53125 -1.609375 L 3.84375 -1.609375 L 3.84375 -2.125 C 3.84375 -2.28125 3.925781 -2.359375 4.09375 -2.359375 L 5.265625 -2.359375 C 5.429688 -2.359375 5.515625 -2.28125 5.515625 -2.125 L 5.515625 -0.25 C 5.515625 -0.0820312 5.429688 0 5.265625 0 L 0.859375 0 C 0.691406 0 0.609375 -0.0820312 0.609375 -0.25 L 0.609375 -3.859375 C 0.609375 -3.972656 0.632812 -4.0625 0.6875 -4.125 C 0.738281 -4.1875 0.820312 -4.25 0.9375 -4.3125 L 3.84375 -5.875 L 3.84375 -7.6875 C 3.84375 -8.019531 3.679688 -8.1875 3.359375 -8.1875 L 2.765625 -8.1875 C 2.441406 -8.1875 2.28125 -8.019531 2.28125 -7.6875 L 2.28125 -6.734375 C 2.28125 -6.609375 2.210938 -6.546875 2.078125 -6.546875 L 0.8125 -6.546875 C 0.675781 -6.546875 0.609375 -6.609375 0.609375 -6.734375 L 0.609375 -8.03125 C 0.609375 -8.613281 0.757812 -9.050781 1.0625 -9.34375 C 1.363281 -9.644531 1.800781 -9.796875 2.375 -9.796875 L 3.75 -9.796875 C 4.320312 -9.796875 4.757812 -9.644531 5.0625 -9.34375 C 5.363281 -9.050781 5.515625 -8.613281 5.515625 -8.03125 L 5.515625 -5.140625 C 5.515625 -5.023438 5.488281 -4.9375 5.4375 -4.875 C 5.382812 -4.820312 5.300781 -4.757812 5.1875 -4.6875 Z M 5.1875 -4.6875 "/></g></g></g></g></g><g transform="matrix(1, 0, 0, 1, 121, 98)"><g clip-path="url(#47e9214f71)"><g fill="#ff5757" fill-opacity="1"><g transform="translate(12.074688, 40.977828)"><g><path d="M 6.140625 -7.640625 C 6.128906 -7.117188 5.972656 -6.515625 5.671875 -5.828125 C 5.367188 -5.140625 4.832031 -4.425781 4.0625 -3.6875 C 2.96875 -2.632812 1.726562 -2.144531 0.34375 -2.21875 C -1.03125 -2.289062 -2.285156 -2.910156 -3.421875 -4.078125 L -3.6875 -4.359375 C -4.84375 -5.566406 -5.445312 -6.875 -5.5 -8.28125 C -5.5625 -9.695312 -5.046875 -10.925781 -3.953125 -11.96875 C -3.328125 -12.570312 -2.65625 -13.023438 -1.9375 -13.328125 C -1.21875 -13.628906 -0.515625 -13.773438 0.171875 -13.765625 L 1.734375 -12.140625 L 0.515625 -10.984375 L -0.75 -11.84375 C -1.019531 -11.820312 -1.3125 -11.734375 -1.625 -11.578125 C -1.945312 -11.429688 -2.265625 -11.207031 -2.578125 -10.90625 C -3.285156 -10.226562 -3.582031 -9.441406 -3.46875 -8.546875 C -3.351562 -7.648438 -2.894531 -6.78125 -2.09375 -5.9375 L -1.8125 -5.640625 C -1.019531 -4.828125 -0.195312 -4.351562 0.65625 -4.21875 C 1.519531 -4.09375 2.316406 -4.382812 3.046875 -5.09375 C 3.367188 -5.394531 3.601562 -5.671875 3.75 -5.921875 C 3.894531 -6.179688 3.988281 -6.398438 4.03125 -6.578125 L 2.734375 -7.9375 L 1.46875 -6.921875 L 0.375 -8.0625 L 3.15625 -10.734375 Z M 6.140625 -7.640625 "/></g></g></g><g fill="#ff5757" fill-opacity="1"><g transform="translate(22.469505, 31.442978)"><g><path d="M 6.03125 -10.390625 C 6.914062 -9.003906 7.25 -7.609375 7.03125 -6.203125 C 6.8125 -4.796875 6.0625 -3.6875 4.78125 -2.875 C 3.507812 -2.0625 2.191406 -1.851562 0.828125 -2.25 C -0.523438 -2.65625 -1.644531 -3.550781 -2.53125 -4.9375 L -2.625 -5.078125 C -3.5 -6.453125 -3.832031 -7.84375 -3.625 -9.25 C -3.425781 -10.65625 -2.6875 -11.769531 -1.40625 -12.59375 C -0.125 -13.40625 1.195312 -13.609375 2.5625 -13.203125 C 3.9375 -12.796875 5.0625 -11.90625 5.9375 -10.53125 Z M 4.046875 -9.34375 C 3.421875 -10.3125 2.707031 -10.972656 1.90625 -11.328125 C 1.113281 -11.679688 0.320312 -11.609375 -0.46875 -11.109375 C -1.269531 -10.597656 -1.671875 -9.910156 -1.671875 -9.046875 C -1.671875 -8.191406 -1.359375 -7.273438 -0.734375 -6.296875 L -0.640625 -6.140625 C -0.00390625 -5.140625 0.703125 -4.460938 1.484375 -4.109375 C 2.273438 -3.753906 3.066406 -3.828125 3.859375 -4.328125 C 4.660156 -4.835938 5.066406 -5.523438 5.078125 -6.390625 C 5.085938 -7.253906 4.773438 -8.1875 4.140625 -9.1875 Z M 4.046875 -9.34375 "/></g></g></g><g fill="#ff5757" fill-opacity="1"><g transform="translate(35.223266, 23.826295)"><g><path d="M 5.515625 -10.375 L 3.96875 -9.75 L 3.125 -11.078125 C 2.894531 -11.117188 2.585938 -11.113281 2.203125 -11.0625 C 1.816406 -11.007812 1.429688 -10.90625 1.046875 -10.75 C 0.472656 -10.53125 0.078125 -10.238281 -0.140625 -9.875 C -0.359375 -9.519531 -0.390625 -9.144531 -0.234375 -8.75 C -0.0976562 -8.40625 0.175781 -8.179688 0.59375 -8.078125 C 1.007812 -7.984375 1.664062 -7.96875 2.5625 -8.03125 C 3.84375 -8.164062 4.882812 -8.085938 5.6875 -7.796875 C 6.488281 -7.503906 7.054688 -6.929688 7.390625 -6.078125 C 7.742188 -5.179688 7.671875 -4.335938 7.171875 -3.546875 C 6.671875 -2.753906 5.84375 -2.132812 4.6875 -1.6875 C 3.863281 -1.351562 3.0625 -1.1875 2.28125 -1.1875 C 1.507812 -1.1875 0.8125 -1.332031 0.1875 -1.625 L -0.65625 -3.78125 L 0.96875 -4.421875 L 1.765625 -3.015625 C 2.035156 -2.953125 2.375 -2.929688 2.78125 -2.953125 C 3.1875 -2.984375 3.613281 -3.085938 4.0625 -3.265625 C 4.632812 -3.484375 5.019531 -3.769531 5.21875 -4.125 C 5.425781 -4.476562 5.453125 -4.847656 5.296875 -5.234375 C 5.140625 -5.640625 4.875 -5.90625 4.5 -6.03125 C 4.125 -6.164062 3.535156 -6.195312 2.734375 -6.125 C 1.359375 -6 0.257812 -6.054688 -0.5625 -6.296875 C -1.394531 -6.535156 -1.976562 -7.085938 -2.3125 -7.953125 C -2.644531 -8.796875 -2.5625 -9.625 -2.0625 -10.4375 C -1.5625 -11.257812 -0.769531 -11.882812 0.3125 -12.3125 C 1.113281 -12.632812 1.890625 -12.804688 2.640625 -12.828125 C 3.390625 -12.847656 4.066406 -12.742188 4.671875 -12.515625 Z M 5.515625 -10.375 "/></g></g></g><g fill="#ff5757" fill-opacity="1"><g transform="translate(47.633317, 19.187464)"><g><path d="M -1.28125 -9.78125 L -1.515625 -11.109375 L 3.046875 -11.921875 L 3.28125 -10.59375 L 2.140625 -10.15625 L 2.703125 -6.96875 L 7.203125 -7.765625 L 6.640625 -10.953125 L 5.421875 -10.96875 L 5.1875 -12.296875 L 6.359375 -12.5 L 8.578125 -12.890625 L 9.75 -13.109375 L 9.984375 -11.78125 L 8.859375 -11.34375 L 10.25 -3.40625 L 11.46875 -3.40625 L 11.703125 -2.078125 L 7.140625 -1.265625 L 6.90625 -2.59375 L 8.03125 -3.015625 L 7.5 -6.046875 L 3 -5.25 L 3.53125 -2.21875 L 4.765625 -2.21875 L 5 -0.890625 L 0.4375 -0.078125 L 0.203125 -1.40625 L 1.3125 -1.828125 L -0.078125 -9.765625 Z M -1.28125 -9.78125 "/></g></g></g><g fill="#ff5757" fill-opacity="1"><g transform="translate(63.421876, 16.865137)"><g><path d="M 10.640625 -10.875 L 10.546875 -7.890625 L 8.828125 -7.953125 L 8.78125 -9.203125 L 6.71875 -9.265625 L 6.46875 -1.375 L 7.671875 -1.109375 L 7.625 0.234375 L 2.96875 0.09375 L 3.015625 -1.25 L 4.21875 -1.453125 L 4.46875 -9.34375 L 2.40625 -9.40625 L 2.28125 -8.15625 L 0.5625 -8.203125 L 0.65625 -11.1875 Z M 10.640625 -10.875 "/></g></g></g><g fill="#ff5757" fill-opacity="1"><g transform="translate(77.897708, 17.875281)"><g/></g></g><g fill="#ff5757" fill-opacity="1"><g transform="translate(85.530035, 19.268756)"><g><path d="M 3.765625 -9.109375 L 4.21875 -10.375 L 8.59375 -8.796875 L 8.140625 -7.53125 L 6.921875 -7.71875 L 5.8125 -4.6875 L 10.109375 -3.140625 L 11.21875 -6.171875 L 10.171875 -6.796875 L 10.625 -8.0625 L 11.75 -7.65625 L 13.859375 -6.890625 L 14.984375 -6.484375 L 14.53125 -5.21875 L 13.328125 -5.40625 L 10.578125 2.15625 L 11.625 2.78125 L 11.171875 4.046875 L 6.8125 2.46875 L 7.265625 1.203125 L 8.46875 1.390625 L 9.53125 -1.5 L 5.234375 -3.046875 L 4.171875 -0.15625 L 5.234375 0.46875 L 4.78125 1.734375 L 0.40625 0.15625 L 0.859375 -1.109375 L 2.0625 -0.9375 L 4.8125 -8.5 Z M 3.765625 -9.109375 "/></g></g></g><g fill="#ff5757" fill-opacity="1"><g transform="translate(100.35321, 25.080173)"><g><path d="M 10.140625 -6.828125 L 9.4375 -5.703125 L 8.296875 -6.15625 L 5.171875 -1.203125 C 4.773438 -0.578125 4.644531 -0.00390625 4.78125 0.515625 C 4.925781 1.046875 5.289062 1.492188 5.875 1.859375 C 6.476562 2.234375 7.046875 2.375 7.578125 2.28125 C 8.117188 2.1875 8.585938 1.828125 8.984375 1.203125 L 12.109375 -3.75 L 11.21875 -4.59375 L 11.921875 -5.71875 L 15.84375 -3.25 L 15.140625 -2.125 L 14.015625 -2.546875 L 10.890625 2.40625 C 10.222656 3.46875 9.351562 4.0625 8.28125 4.1875 C 7.207031 4.320312 6.101562 4.03125 4.96875 3.3125 C 3.84375 2.59375 3.113281 1.726562 2.78125 0.71875 C 2.445312 -0.289062 2.613281 -1.328125 3.28125 -2.390625 L 6.40625 -7.34375 L 5.515625 -8.1875 L 6.21875 -9.3125 L 7.234375 -8.671875 L 9.125 -7.484375 Z M 10.140625 -6.828125 "/></g></g></g><g fill="#ff5757" fill-opacity="1"><g transform="translate(113.273569, 33.756094)"><g><path d="M 11.65625 -4.328125 C 12.613281 -3.410156 13.179688 -2.507812 13.359375 -1.625 C 13.535156 -0.75 13.269531 0.0507812 12.5625 0.78125 C 12.195312 1.15625 11.773438 1.394531 11.296875 1.5 C 10.816406 1.601562 10.316406 1.550781 9.796875 1.34375 C 10.179688 1.90625 10.332031 2.472656 10.25 3.046875 C 10.164062 3.617188 9.910156 4.128906 9.484375 4.578125 C 8.734375 5.359375 7.910156 5.703125 7.015625 5.609375 C 6.128906 5.515625 5.21875 5.015625 4.28125 4.109375 L 0.3125 0.296875 L 1.25 -0.671875 L 2.265625 -0.015625 L 7.84375 -5.8125 L 7.140625 -6.8125 L 8.078125 -7.78125 L 8.9375 -6.953125 Z M 6.234375 -0.890625 L 3.984375 1.453125 L 5.46875 2.875 C 5.894531 3.289062 6.3125 3.515625 6.71875 3.546875 C 7.132812 3.578125 7.519531 3.40625 7.875 3.03125 C 8.257812 2.632812 8.453125 2.238281 8.453125 1.84375 C 8.460938 1.445312 8.257812 1.050781 7.84375 0.65625 Z M 7.3125 -2.015625 L 8.46875 -0.90625 C 8.90625 -0.488281 9.320312 -0.253906 9.71875 -0.203125 C 10.125 -0.160156 10.492188 -0.304688 10.828125 -0.640625 C 11.179688 -1.015625 11.320312 -1.398438 11.25 -1.796875 C 11.1875 -2.203125 10.921875 -2.628906 10.453125 -3.078125 L 9.359375 -4.140625 Z M 7.3125 -2.015625 "/></g></g></g></g></g><g transform="matrix(1, 0, 0, 1, 113, 219)"><g clip-path="url(#0d3c307353)"><g fill="#ff5757" fill-opacity="1"><g transform="translate(3.301618, 7.027569)"><g><path d="M 1.078125 -0.25 L 1.6875 0.484375 L 7.109375 -2.671875 L 6.78125 -3.578125 L 7.6875 -4.09375 L 11.171875 1.90625 L 9.125 3.09375 L 8.453125 1.921875 L 9.296875 1.34375 L 7.875 -1.09375 L 5.8125 0.109375 L 7.34375 2.734375 L 6.171875 3.40625 L 4.640625 0.78125 L 2.5625 2 L 2.890625 2.875 L 1.984375 3.40625 L 0.171875 0.28125 Z M 1.078125 -0.25 "/></g></g></g><g fill="#ff5757" fill-opacity="1"><g transform="translate(9.343502, 16.891584)"><g><path d="M 0.96875 -0.46875 L 1.4375 -0.03125 L 8.96875 -2.734375 L 10.09375 -1.328125 L 5.875 5.453125 L 6.1875 6 L 5.375 6.65625 L 3.515625 4.359375 L 4.328125 3.703125 L 4.796875 4.109375 L 5.484375 3.0625 L 3.703125 0.859375 L 2.546875 1.3125 L 2.828125 1.84375 L 2.015625 2.5 L 0.15625 0.1875 Z M 4.96875 0.375 L 6.21875 1.921875 L 8 -0.765625 L 7.96875 -0.78125 Z M 4.96875 0.375 "/></g></g></g><g fill="#ff5757" fill-opacity="1"><g transform="translate(17.647647, 26.65541)"><g><path d="M 8.984375 -3.609375 C 9.710938 -2.941406 10.132812 -2.253906 10.25 -1.546875 C 10.363281 -0.835938 10.15625 -0.1875 9.625 0.40625 C 9.332031 0.726562 8.988281 0.929688 8.59375 1.015625 C 8.207031 1.097656 7.78125 1.0625 7.3125 0.90625 C 7.59375 1.363281 7.695312 1.800781 7.625 2.21875 C 7.550781 2.632812 7.34375 3.035156 7 3.421875 L 6.703125 3.734375 C 6.566406 3.878906 6.492188 4.015625 6.484375 4.140625 C 6.472656 4.273438 6.519531 4.410156 6.625 4.546875 L 6.78125 4.703125 L 6.078125 5.484375 L 5.40625 4.875 C 4.976562 4.5 4.78125 4.117188 4.8125 3.734375 C 4.851562 3.347656 5.035156 2.972656 5.359375 2.609375 L 5.6875 2.25 C 5.96875 1.9375 6.101562 1.613281 6.09375 1.28125 C 6.09375 0.957031 5.945312 0.648438 5.65625 0.359375 L 4.59375 -0.59375 L 3.046875 1.109375 L 3.625 1.859375 L 2.921875 2.640625 L 0.25 0.21875 L 0.953125 -0.5625 L 1.75 -0.0625 L 5.953125 -4.703125 L 5.390625 -5.46875 L 6.078125 -6.234375 L 6.765625 -5.609375 Z M 5.5 -1.59375 L 6.390625 -0.78125 C 6.753906 -0.445312 7.09375 -0.273438 7.40625 -0.265625 C 7.71875 -0.265625 8.007812 -0.414062 8.28125 -0.71875 C 8.539062 -1 8.660156 -1.300781 8.640625 -1.625 C 8.617188 -1.957031 8.4375 -2.285156 8.09375 -2.609375 L 7.171875 -3.4375 Z M 5.5 -1.59375 "/></g></g></g><g fill="#ff5757" fill-opacity="1"><g transform="translate(27.088412, 34.887402)"><g><path d="M 10.828125 -0.8125 L 10.796875 -0.84375 L 5.40625 3.390625 L 4.40625 2.765625 L 5.84375 -3.90625 L 5.8125 -3.921875 L 3.9375 -0.59375 L 3.203125 0.578125 L 3.90625 1.203125 L 3.34375 2.09375 L 0.28125 0.171875 L 0.84375 -0.71875 L 1.71875 -0.359375 L 5.046875 -5.671875 L 4.34375 -6.3125 L 4.90625 -7.203125 L 5.703125 -6.703125 L 7.625 -5.484375 L 6.109375 1.109375 L 6.125 1.125 L 11.4375 -3.109375 L 14.15625 -1.40625 L 13.59375 -0.515625 L 12.703125 -0.859375 L 9.375 4.453125 L 10.09375 5.078125 L 9.53125 5.96875 L 6.46875 4.0625 L 7.03125 3.171875 L 7.90625 3.53125 L 8.640625 2.359375 Z M 10.828125 -0.8125 "/></g></g></g><g fill="#ff5757" fill-opacity="1"><g transform="translate(40.493894, 42.614561)"><g/></g></g><g fill="#ff5757" fill-opacity="1"><g transform="translate(46.788506, 45.330464)"><g><path d="M 0.625 -0.90625 L 1.578125 -0.78125 L 3.46875 -6.765625 L 2.625 -7.203125 L 2.9375 -8.203125 L 9.546875 -6.109375 L 8.828125 -3.84375 L 7.546875 -4.25 L 7.796875 -5.25 L 5.09375 -6.109375 L 4.375 -3.828125 L 7.28125 -2.90625 L 6.875 -1.625 L 3.96875 -2.546875 L 3.25 -0.25 L 4.0625 0.1875 L 3.75 1.1875 L 0.3125 0.09375 Z M 0.625 -0.90625 "/></g></g></g><g fill="#ff5757" fill-opacity="1"><g transform="translate(57.882418, 48.566042)"><g><path d="M 5.578125 -7.921875 C 6.546875 -7.765625 7.269531 -7.414062 7.75 -6.875 C 8.238281 -6.34375 8.421875 -5.6875 8.296875 -4.90625 C 8.222656 -4.476562 8.046875 -4.117188 7.765625 -3.828125 C 7.492188 -3.546875 7.113281 -3.347656 6.625 -3.234375 C 7.101562 -3.003906 7.425781 -2.695312 7.59375 -2.3125 C 7.769531 -1.925781 7.816406 -1.472656 7.734375 -0.953125 L 7.65625 -0.53125 C 7.625 -0.332031 7.632812 -0.175781 7.6875 -0.0625 C 7.75 0.0507812 7.867188 0.132812 8.046875 0.1875 L 8.25 0.25 L 8.078125 1.28125 L 7.1875 1.140625 C 6.625 1.054688 6.25 0.84375 6.0625 0.5 C 5.882812 0.164062 5.835938 -0.242188 5.921875 -0.734375 L 6 -1.203125 C 6.0625 -1.628906 6 -1.976562 5.8125 -2.25 C 5.625 -2.519531 5.328125 -2.691406 4.921875 -2.765625 L 3.53125 -3 L 3.171875 -0.734375 L 4.0625 -0.40625 L 3.890625 0.625 L 0.328125 0.046875 L 0.5 -0.984375 L 1.4375 -1 L 2.421875 -7.1875 L 1.53125 -7.515625 L 1.703125 -8.546875 L 2.625 -8.390625 Z M 3.75 -4.34375 L 4.9375 -4.15625 C 5.414062 -4.070312 5.785156 -4.113281 6.046875 -4.28125 C 6.316406 -4.445312 6.484375 -4.722656 6.546875 -5.109375 C 6.609375 -5.492188 6.539062 -5.816406 6.34375 -6.078125 C 6.144531 -6.347656 5.816406 -6.519531 5.359375 -6.59375 L 4.140625 -6.796875 Z M 3.75 -4.34375 "/></g></g></g><g fill="#ff5757" fill-opacity="1"><g transform="translate(70.189979, 50.1967)"><g><path d="M 5.984375 -3.78125 L 3.046875 -3.8125 L 3.03125 -1.328125 L 5.828125 -1.296875 L 5.90625 -2.328125 L 7.234375 -2.328125 L 7.21875 0.046875 L 0.328125 0 L 0.328125 -1.046875 L 1.28125 -1.203125 L 1.3125 -7.46875 L 0.375 -7.65625 L 0.390625 -8.703125 L 1.328125 -8.6875 L 7.28125 -8.65625 L 7.265625 -6.28125 L 5.921875 -6.28125 L 5.84375 -7.3125 L 3.0625 -7.34375 L 3.046875 -5.15625 L 5.984375 -5.125 Z M 5.984375 -3.78125 "/></g></g></g><g fill="#ff5757" fill-opacity="1"><g transform="translate(81.97932, 49.979895)"><g><path d="M 6.078125 -6.8125 L 4.78125 -6.625 L 4.390625 -7.796875 C 4.222656 -7.867188 3.988281 -7.921875 3.6875 -7.953125 C 3.394531 -7.992188 3.09375 -7.988281 2.78125 -7.9375 C 2.300781 -7.875 1.945312 -7.722656 1.71875 -7.484375 C 1.488281 -7.242188 1.394531 -6.96875 1.4375 -6.65625 C 1.476562 -6.351562 1.644531 -6.128906 1.9375 -5.984375 C 2.226562 -5.835938 2.722656 -5.707031 3.421875 -5.59375 C 4.410156 -5.457031 5.179688 -5.207031 5.734375 -4.84375 C 6.285156 -4.476562 6.609375 -3.941406 6.703125 -3.234375 C 6.804688 -2.492188 6.59375 -1.867188 6.0625 -1.359375 C 5.539062 -0.847656 4.800781 -0.53125 3.84375 -0.40625 C 3.15625 -0.3125 2.519531 -0.332031 1.9375 -0.46875 C 1.351562 -0.613281 0.851562 -0.847656 0.4375 -1.171875 L 0.1875 -2.984375 L 1.53125 -3.171875 L 1.890625 -1.96875 C 2.085938 -1.851562 2.335938 -1.769531 2.640625 -1.71875 C 2.941406 -1.664062 3.28125 -1.664062 3.65625 -1.71875 C 4.125 -1.78125 4.46875 -1.925781 4.6875 -2.15625 C 4.914062 -2.382812 5.007812 -2.660156 4.96875 -2.984375 C 4.925781 -3.316406 4.769531 -3.566406 4.5 -3.734375 C 4.226562 -3.898438 3.789062 -4.035156 3.1875 -4.140625 C 2.125 -4.296875 1.300781 -4.535156 0.71875 -4.859375 C 0.132812 -5.191406 -0.203125 -5.710938 -0.296875 -6.421875 C -0.390625 -7.128906 -0.171875 -7.742188 0.359375 -8.265625 C 0.890625 -8.796875 1.601562 -9.128906 2.5 -9.265625 C 3.15625 -9.347656 3.769531 -9.328125 4.34375 -9.203125 C 4.914062 -9.078125 5.414062 -8.867188 5.84375 -8.578125 Z M 6.078125 -6.8125 "/></g></g></g><g fill="#ff5757" fill-opacity="1"><g transform="translate(93.287205, 48.18912)"><g><path d="M -1.890625 -7.421875 L -2.203125 -8.421875 L 1.25 -9.46875 L 1.5625 -8.46875 L 0.734375 -8.046875 L 1.453125 -5.625 L 4.84375 -6.640625 L 4.125 -9.0625 L 3.1875 -8.953125 L 2.875 -9.953125 L 3.765625 -10.21875 L 5.421875 -10.71875 L 6.328125 -11 L 6.640625 -10 L 5.78125 -9.5625 L 7.578125 -3.5625 L 8.546875 -3.671875 L 8.84375 -2.671875 L 5.390625 -1.625 L 5.09375 -2.625 L 5.921875 -3.0625 L 5.234375 -5.359375 L 1.84375 -4.34375 L 2.53125 -2.046875 L 3.46875 -2.140625 L 3.765625 -1.140625 L 0.3125 -0.09375 L 0.015625 -1.09375 L 0.859375 -1.53125 L -0.9375 -7.53125 Z M -1.890625 -7.421875 "/></g></g></g><g fill="#ff5757" fill-opacity="1"><g transform="translate(106.041142, 43.869518)"><g/></g></g><g fill="#ff5757" fill-opacity="1"><g transform="translate(112.416491, 41.049565)"><g><path d="M 4 -10.078125 L 3.953125 -10.078125 L 5.40625 -3.375 L 4.40625 -2.765625 L -0.96875 -6.96875 L -1 -6.953125 L 1.1875 -3.796875 L 1.921875 -2.625 L 2.78125 -2.984375 L 3.34375 -2.09375 L 0.28125 -0.171875 L -0.28125 -1.0625 L 0.4375 -1.703125 L -2.890625 -7.015625 L -3.78125 -6.65625 L -4.328125 -7.546875 L -3.53125 -8.046875 L -1.609375 -9.25 L 3.671875 -5.015625 L 3.703125 -5.03125 L 2.203125 -11.640625 L 4.921875 -13.34375 L 5.46875 -12.453125 L 4.78125 -11.8125 L 8.109375 -6.5 L 8.96875 -6.859375 L 9.53125 -5.96875 L 6.484375 -4.046875 L 5.921875 -4.9375 L 6.625 -5.578125 L 5.890625 -6.75 Z M 4 -10.078125 "/></g></g></g><g fill="#ff5757" fill-opacity="1"><g transform="translate(125.370743, 32.347909)"><g><path d="M 1.890625 -6.828125 L -0.296875 -4.875 L 1.359375 -3.015625 L 3.4375 -4.875 L 2.8125 -5.6875 L 3.796875 -6.578125 L 5.375 -4.8125 L 0.25 -0.21875 L -0.453125 -1 L 0.125 -1.75 L -4.046875 -6.421875 L -4.859375 -5.921875 L -5.546875 -6.703125 L -4.859375 -7.328125 L -0.421875 -11.296875 L 1.15625 -9.53125 L 0.15625 -8.640625 L -0.59375 -9.34375 L -2.65625 -7.5 L -1.203125 -5.875 L 0.984375 -7.828125 Z M 1.890625 -6.828125 "/></g></g></g><g fill="#ff5757" fill-opacity="1"><g transform="translate(134.004031, 24.259112)"><g><path d="M -0.65625 -0.859375 L -0.3125 -1.390625 L -4.484375 -8.25 L -3.34375 -9.640625 L 4.15625 -6.859375 L 4.625 -7.28125 L 5.4375 -6.609375 L 3.546875 -4.328125 L 2.734375 -5 L 3.046875 -5.53125 L 1.875 -5.96875 L 0.078125 -3.796875 L 0.765625 -2.75 L 1.234375 -3.15625 L 2.046875 -2.484375 L 0.15625 -0.1875 Z M -0.65625 -4.9375 L 0.625 -6.484375 L -2.375 -7.671875 L -2.40625 -7.640625 Z M -0.65625 -4.9375 "/></g></g></g><g fill="#ff5757" fill-opacity="1"><g transform="translate(141.876071, 14.151051)"><g><path d="M -3.4375 -11.296875 L -1.453125 -10.125 L -2.140625 -8.96875 L -3 -9.421875 L -3.8125 -8.03125 L 1.484375 -4.921875 L 2.09375 -5.640625 L 3 -5.109375 L 1.171875 -2 L 0.265625 -2.53125 L 0.59375 -3.40625 L -4.703125 -6.515625 L -5.515625 -5.140625 L -4.71875 -4.59375 L -5.390625 -3.4375 L -7.375 -4.609375 Z M -3.4375 -11.296875 "/></g></g></g></g></g></svg>